<svg width="233" height="121" viewBox="0 0 233 121" fill="none" xmlns="http://www.w3.org/2000/svg">
<path d="M122.641 115.52C116.481 119.12 110.201 120.92 103.801 120.92C97.4013 120.92 91.3213 119.72 85.5613 117.32C79.8813 114.92 74.2813 110.72 68.7613 104.72C63.3213 98.8 58.8413 91.56 55.3213 83L52.0813 75.08H26.4013L21.6013 86.24C21.2013 87.28 21.0013 88.12 21.0013 88.76C21.0013 89.4 21.1213 90.12 21.3613 90.92C21.6813 91.64 22.2813 92.32 23.1613 92.96C24.1213 93.52 25.1213 93.8 26.1613 93.8H27.2413V95H0.48125V93.8H1.56125C3.40125 93.8 5.20125 93.28 6.96125 92.24C8.80125 91.12 10.3213 89.48 11.5213 87.32L36.0013 33.56C33.6013 26.92 31.6013 22.48 30.0013 20.24C28.4813 17.92 27.2013 16.16 26.1613 14.96C24.2413 12.72 21.8413 11.08 18.9613 10.04C17.8413 9.64 16.5213 9.43999 15.0013 9.43999C13.4813 9.43999 11.7613 9.79999 9.84125 10.52L9.60125 9.31999C16.0013 5.56 22.1213 3.68 27.9613 3.68C36.6013 3.68 44.4013 7.92 51.3613 16.4C54.8813 20.8 58.0413 26.12 60.8413 32.36L80.0413 76.4C83.5613 84.48 86.1613 89.92 87.8413 92.72C89.5213 95.44 91.0013 97.76 92.2813 99.68C93.6413 101.68 94.9613 103.4 96.2413 104.84C97.5213 106.28 98.9213 107.68 100.441 109.04C103.081 111.44 106.401 113.24 110.401 114.44C112.081 115 113.921 115.28 115.921 115.28C118.001 115.28 120.161 114.96 122.401 114.32L122.641 115.52ZM29.0413 69.08H49.6813L42.1213 50.48C41.4813 49.04 40.7213 47 39.8413 44.36L29.0413 69.08ZM75.8591 5.47999C81.5391 2.43999 87.0991 0.919995 92.5391 0.919995C98.0591 0.919995 103.099 2.07999 107.659 4.39999C116.779 9.11999 124.579 16.84 131.059 27.56L152.539 62.48L188.179 9.31999H189.259L202.819 79.52C205.539 93.92 209.579 103.92 214.939 109.52C219.179 113.92 224.579 116.12 231.139 116.12C231.699 116.12 232.299 116.12 232.939 116.12V117.32C227.979 119.4 222.819 120.44 217.459 120.44C206.819 120.44 197.579 116.28 189.739 107.96C183.179 101.08 178.579 91.36 175.939 78.8L170.419 53.48L149.899 83.96C148.539 85.88 147.339 88.2 146.299 90.92C145.259 93.64 144.779 95.96 144.859 97.88H143.779L114.619 47.96L108.619 88.28V88.76C108.619 90.04 109.059 91.24 109.939 92.36C110.899 93.4 112.019 93.92 113.299 93.92H115.099V95H88.8191V93.8H90.7391C92.8991 93.8 94.7791 93.16 96.3791 91.88C98.0591 90.52 99.0991 88.72 99.4991 86.48L107.779 35C103.699 27.88 99.1791 21.56 94.2191 16.04C88.5391 9.79999 82.8591 6.67999 77.1791 6.67999C76.8591 6.67999 76.5391 6.67999 76.2191 6.67999L75.8591 5.47999Z" fill="url(#paint0_radial)"/>
<defs>
<radialGradient id="paint0_radial" cx="0" cy="0" r="1" gradientUnits="userSpaceOnUse" gradientTransform="translate(107 59) rotate(90) scale(50 122)">
<stop stop-color="#FFEFB8"/>
<stop offset="1" stop-color="#FFD951"/>
</radialGradient>
</defs>
</svg>
