<svg width="156" height="81" viewBox="0 0 156 81" fill="none" xmlns="http://www.w3.org/2000/svg">
<path d="M82.4275 76.68C78.3208 79.08 74.1342 80.28 69.8675 80.28C65.6008 80.28 61.5475 79.48 57.7075 77.88C53.9208 76.28 50.1875 73.48 46.5075 69.48C42.8808 65.5333 39.8942 60.7067 37.5475 55L35.3875 49.72H18.2675L15.0675 57.16C14.8008 57.8533 14.6675 58.4133 14.6675 58.84C14.6675 59.2667 14.7475 59.7467 14.9075 60.28C15.1208 60.76 15.5208 61.2133 16.1075 61.64C16.7475 62.0133 17.4142 62.2 18.1075 62.2H18.8275V63H0.9875V62.2H1.7075C2.93417 62.2 4.13417 61.8533 5.3075 61.16C6.53417 60.4133 7.5475 59.32 8.3475 57.88L24.6675 22.04C23.0675 17.6133 21.7342 14.6533 20.6675 13.16C19.6542 11.6133 18.8008 10.44 18.1075 9.64C16.8275 8.14666 15.2275 7.05333 13.3075 6.36C12.5608 6.09333 11.6808 5.96 10.6675 5.96C9.65417 5.96 8.5075 6.2 7.2275 6.68L7.0675 5.88C11.3342 3.37333 15.4142 2.12 19.3075 2.12C25.0675 2.12 30.2675 4.94666 34.9075 10.6C37.2542 13.5333 39.3608 17.08 41.2275 21.24L54.0275 50.6C56.3742 55.9867 58.1075 59.6133 59.2275 61.48C60.3475 63.2933 61.3342 64.84 62.1875 66.12C63.0942 67.4533 63.9742 68.6 64.8275 69.56C65.6808 70.52 66.6142 71.4533 67.6275 72.36C69.3875 73.96 71.6008 75.16 74.2675 75.96C75.3875 76.3333 76.6142 76.52 77.9475 76.52C79.3342 76.52 80.7742 76.3067 82.2675 75.88L82.4275 76.68ZM20.0275 45.72H33.7875L28.7475 33.32C28.3208 32.36 27.8142 31 27.2275 29.24L20.0275 45.72ZM51.2394 3.32C55.026 1.29333 58.7327 0.279997 62.3594 0.279997C66.0394 0.279997 69.3994 1.05333 72.4394 2.6C78.5194 5.74666 83.7194 10.8933 88.0394 18.04L102.359 41.32L126.119 5.88H126.839L135.879 52.68C137.693 62.28 140.386 68.9467 143.959 72.68C146.786 75.6133 150.386 77.08 154.759 77.08C155.133 77.08 155.533 77.08 155.959 77.08V77.88C152.653 79.2667 149.213 79.96 145.639 79.96C138.546 79.96 132.386 77.1867 127.159 71.64C122.786 67.0533 119.719 60.5733 117.959 52.2L114.279 35.32L100.599 55.64C99.6927 56.92 98.8927 58.4667 98.1994 60.28C97.506 62.0933 97.186 63.64 97.2394 64.92H96.5194L77.0794 31.64L73.0794 58.52V58.84C73.0794 59.6933 73.3727 60.4933 73.9594 61.24C74.5994 61.9333 75.346 62.28 76.1994 62.28H77.3994V63H59.8794V62.2H61.1594C62.5994 62.2 63.8527 61.7733 64.9194 60.92C66.0394 60.0133 66.7327 58.8133 66.9994 57.32L72.5194 23C69.7994 18.2533 66.786 14.04 63.4794 10.36C59.6927 6.2 55.906 4.12 52.1194 4.12C51.906 4.12 51.6927 4.12 51.4794 4.12L51.2394 3.32Z" fill="url(#paint0_radial)"/>
<defs>
<radialGradient id="paint0_radial" cx="0" cy="0" r="1" gradientUnits="userSpaceOnUse" gradientTransform="translate(72 39) rotate(90) scale(50 100)">
<stop stop-color="#FFEFB8"/>
<stop offset="1" stop-color="#FFD951"/>
</radialGradient>
</defs>
</svg>
